M48
; DRILL file {KiCad 6.0.2+dfsg-1} date Sun 01 Sep 2024 22:20:38 KST
; FORMAT={-:-/ absolute / metric / decimal}
; #@! TF.CreationDate,2024-09-01T22:20:38+09:00
; #@! TF.GenerationSoftware,Kicad,Pcbnew,6.0.2+dfsg-1
; #@! TF.FileFunction,Plated,1,2,PTH
FMAT,2
METRIC
; #@! TA.AperFunction,Plated,PTH,ViaDrill
T1C0.400
; #@! TA.AperFunction,Plated,PTH,ComponentDrill
T2C0.800
; #@! TA.AperFunction,Plated,PTH,ComponentDrill
T3C0.900
; #@! TA.AperFunction,Plated,PTH,ComponentDrill
T4C1.000
; #@! TA.AperFunction,Plated,PTH,ComponentDrill
T5C1.100
%
G90
G05
T1
X117.924Y-127.694
X147.32Y-117.348
X148.082Y-116.586
X148.082Y-118.11
X148.844Y-115.57
T2
X93.98Y-92.71
X93.98Y-96.012
X93.98Y-99.314
X93.98Y-103.886
X93.98Y-107.188
X93.98Y-110.49
X101.6Y-92.71
X101.6Y-96.012
X101.6Y-99.314
X101.6Y-103.886
X101.6Y-107.188
X101.6Y-110.49
X108.712Y-71.882
X108.712Y-79.502
X108.712Y-123.444
X108.712Y-131.064
X112.014Y-71.882
X112.014Y-79.502
X112.014Y-123.444
X112.014Y-131.064
X115.316Y-71.882
X115.316Y-79.502
X115.316Y-123.444
X115.316Y-131.064
X120.65Y-126.746
X120.65Y-134.366
X121.412Y-69.342
X121.412Y-76.962
X123.952Y-126.746
X123.952Y-134.366
X124.714Y-69.342
X124.714Y-76.962
X127.254Y-126.746
X127.254Y-134.366
X128.016Y-69.342
X128.016Y-76.962
X143.002Y-120.65
X143.002Y-123.952
X143.002Y-127.254
X143.256Y-75.184
X143.256Y-78.486
X143.256Y-81.788
X150.622Y-120.65
X150.622Y-123.952
X150.622Y-127.254
X150.876Y-75.184
X150.876Y-78.486
X150.876Y-81.788
X151.13Y-108.712
X151.13Y-112.014
X151.13Y-115.316
X151.384Y-87.376
X151.384Y-90.678
X151.384Y-93.98
X158.75Y-108.712
X158.75Y-112.014
X158.75Y-115.316
X159.004Y-87.376
X159.004Y-90.678
X159.004Y-93.98
X162.56Y-133.858
X162.56Y-141.478
T3
X85.954Y-97.434
X85.954Y-105.766
X87.681Y-89.256
X87.681Y-113.944
X88.494Y-97.434
X88.494Y-105.766
X90.221Y-89.256
X90.221Y-113.944
X91.084Y-81.636
X91.084Y-121.615
X93.624Y-81.636
X93.624Y-121.615
X96.012Y-74.828
X96.012Y-128.372
X98.552Y-74.828
X98.552Y-128.372
X102.21Y-69.24
X102.21Y-133.96
X104.75Y-69.24
X104.75Y-133.96
X109.474Y-65.075
X109.474Y-138.125
X112.014Y-65.075
X112.014Y-138.125
X117.399Y-62.484
X117.399Y-140.716
X119.939Y-62.484
X119.939Y-140.716
X125.73Y-61.595
X125.73Y-141.58
X128.27Y-61.595
X128.27Y-141.58
X134.056Y-62.484
X134.061Y-140.716
X136.596Y-62.484
X136.601Y-140.716
X141.986Y-65.075
X141.986Y-138.176
X144.526Y-65.075
X144.526Y-138.176
X149.25Y-69.24
X149.25Y-133.96
X151.79Y-69.24
X151.79Y-133.96
X155.448Y-74.828
X155.448Y-128.372
X157.988Y-74.828
X157.988Y-128.372
X160.376Y-81.585
X160.376Y-121.615
X162.916Y-81.585
X162.916Y-121.615
X163.779Y-89.256
X163.779Y-113.944
X165.506Y-97.434
X165.506Y-105.766
X166.319Y-89.256
X166.319Y-113.944
X168.046Y-97.434
X168.046Y-105.766
T4
X118.11Y-90.17
X118.11Y-113.03
X120.65Y-90.17
X120.65Y-113.03
X123.19Y-90.17
X123.19Y-113.03
X125.73Y-90.17
X125.73Y-113.03
X128.27Y-90.17
X128.27Y-113.03
X130.81Y-90.17
X130.81Y-113.03
X133.35Y-90.17
X133.35Y-113.03
X135.89Y-90.17
X135.89Y-113.03
T5
X165.862Y-134.366
X165.862Y-138.866
X172.362Y-134.366
X172.362Y-138.866
T0
M30
