%TF.GenerationSoftware,KiCad,Pcbnew,6.0.2+dfsg-1*%
%TF.CreationDate,2024-09-01T22:19:58+09:00*%
%TF.ProjectId,roulette,726f756c-6574-4746-952e-6b696361645f,A*%
%TF.SameCoordinates,Original*%
%TF.FileFunction,Copper,L2,Bot*%
%TF.FilePolarity,Positive*%
%FSLAX46Y46*%
G04 Gerber Fmt 4.6, Leading zero omitted, Abs format (unit mm)*
G04 Created by KiCad (PCBNEW 6.0.2+dfsg-1) date 2024-09-01 22:19:58*
%MOMM*%
%LPD*%
G01*
G04 APERTURE LIST*
%TA.AperFunction,Profile*%
%ADD10C,0.200000*%
%TD*%
%TA.AperFunction,ComponentPad*%
%ADD11C,1.600000*%
%TD*%
%TA.AperFunction,ComponentPad*%
%ADD12O,1.600000X1.600000*%
%TD*%
%TA.AperFunction,ComponentPad*%
%ADD13R,1.800000X1.800000*%
%TD*%
%TA.AperFunction,ComponentPad*%
%ADD14C,1.800000*%
%TD*%
%TA.AperFunction,ComponentPad*%
%ADD15C,2.000000*%
%TD*%
%TA.AperFunction,ComponentPad*%
%ADD16R,1.700000X1.700000*%
%TD*%
%TA.AperFunction,ComponentPad*%
%ADD17O,1.700000X1.700000*%
%TD*%
%TA.AperFunction,ViaPad*%
%ADD18C,0.800000*%
%TD*%
%TA.AperFunction,Conductor*%
%ADD19C,0.250000*%
%TD*%
G04 APERTURE END LIST*
D10*
X83750000Y-56600000D02*
G75*
G03*
X83750000Y-56600000I-1750000J0D01*
G01*
X172000000Y-51600000D02*
X82000000Y-51600000D01*
X82000000Y-51600000D02*
G75*
G03*
X77000000Y-56600000I0J-5000000D01*
G01*
X173750000Y-146600000D02*
G75*
G03*
X173750000Y-146600000I-1750000J0D01*
G01*
X172000000Y-151600000D02*
G75*
G03*
X177000000Y-146600000I0J5000000D01*
G01*
X177000000Y-146600000D02*
X177000000Y-56600000D01*
X83750000Y-146600000D02*
G75*
G03*
X83750000Y-146600000I-1750000J0D01*
G01*
X177000000Y-56600000D02*
G75*
G03*
X172000000Y-51600000I-5000000J0D01*
G01*
X173750000Y-56600000D02*
G75*
G03*
X173750000Y-56600000I-1750000J0D01*
G01*
X77000000Y-146600000D02*
X77000000Y-56600000D01*
X77000000Y-146600000D02*
G75*
G03*
X82000000Y-151600000I5000000J0D01*
G01*
X172000000Y-151600000D02*
X82000000Y-151600000D01*
D11*
%TO.P,R31,1*%
%TO.N,Net-(D30-Pad1)*%
X150876000Y-75184000D03*
D12*
%TO.P,R31,2*%
%TO.N,/efr32xg24_explorer_kit/PB04*%
X143256000Y-75184000D03*
%TD*%
D13*
%TO.P,D11,1,K*%
%TO.N,Net-(D11-Pad1)*%
X87680800Y-113944400D03*
D14*
%TO.P,D11,2,A*%
%TO.N,/efr32xg24_explorer_kit/PC00*%
X90220800Y-113944400D03*
%TD*%
D13*
%TO.P,D4,1,K*%
%TO.N,Net-(D4-Pad1)*%
X109474000Y-65074800D03*
D14*
%TO.P,D4,2,A*%
%TO.N,/efr32xg24_explorer_kit/PB00*%
X112014000Y-65074800D03*
%TD*%
D13*
%TO.P,D10,1,K*%
%TO.N,Net-(D10-Pad1)*%
X85953600Y-105765600D03*
D14*
%TO.P,D10,2,A*%
%TO.N,/efr32xg24_explorer_kit/PC08*%
X88493600Y-105765600D03*
%TD*%
D11*
%TO.P,R14,1*%
%TO.N,Net-(D13-Pad1)*%
X108712000Y-131064000D03*
D12*
%TO.P,R14,2*%
%TO.N,/efr32xg24_explorer_kit/PD05*%
X108712000Y-123444000D03*
%TD*%
D13*
%TO.P,D3,1,K*%
%TO.N,Net-(D3-Pad1)*%
X117398800Y-62484000D03*
D14*
%TO.P,D3,2,A*%
%TO.N,/efr32xg24_explorer_kit/PB00*%
X119938800Y-62484000D03*
%TD*%
D11*
%TO.P,R10,1*%
%TO.N,Net-(D9-Pad1)*%
X93980000Y-99314000D03*
D12*
%TO.P,R10,2*%
%TO.N,/efr32xg24_explorer_kit/PD04*%
X101600000Y-99314000D03*
%TD*%
D13*
%TO.P,D28,1,K*%
%TO.N,Net-(D28-Pad1)*%
X155448000Y-74828400D03*
D14*
%TO.P,D28,2,A*%
%TO.N,/efr32xg24_explorer_kit/PC03*%
X157988000Y-74828400D03*
%TD*%
D11*
%TO.P,R1,1*%
%TO.N,+3V3*%
X162560000Y-141478000D03*
D12*
%TO.P,R1,2*%
%TO.N,/efr32xg24_explorer_kit/PB05*%
X162560000Y-133858000D03*
%TD*%
D11*
%TO.P,R29,1*%
%TO.N,Net-(D28-Pad1)*%
X150876000Y-81788000D03*
D12*
%TO.P,R29,2*%
%TO.N,/efr32xg24_explorer_kit/PD05*%
X143256000Y-81788000D03*
%TD*%
D11*
%TO.P,R9,1*%
%TO.N,Net-(D8-Pad1)*%
X93980000Y-96012000D03*
D12*
%TO.P,R9,2*%
%TO.N,/efr32xg24_explorer_kit/PD05*%
X101600000Y-96012000D03*
%TD*%
D13*
%TO.P,D5,1,K*%
%TO.N,Net-(D5-Pad1)*%
X102209600Y-69240400D03*
D14*
%TO.P,D5,2,A*%
%TO.N,/efr32xg24_explorer_kit/PB00*%
X104749600Y-69240400D03*
%TD*%
D11*
%TO.P,R22,1*%
%TO.N,Net-(D21-Pad1)*%
X150622000Y-120650000D03*
D12*
%TO.P,R22,2*%
%TO.N,/efr32xg24_explorer_kit/PA00*%
X143002000Y-120650000D03*
%TD*%
D13*
%TO.P,D15,1,K*%
%TO.N,Net-(D15-Pad1)*%
X109474000Y-138125200D03*
D14*
%TO.P,D15,2,A*%
%TO.N,/efr32xg24_explorer_kit/PC00*%
X112014000Y-138125200D03*
%TD*%
D11*
%TO.P,R27,1*%
%TO.N,Net-(D26-Pad1)*%
X159004000Y-90678000D03*
D12*
%TO.P,R27,2*%
%TO.N,/efr32xg24_explorer_kit/PA00*%
X151384000Y-90678000D03*
%TD*%
D11*
%TO.P,R25,1*%
%TO.N,Net-(D24-Pad1)*%
X158750000Y-108712000D03*
D12*
%TO.P,R25,2*%
%TO.N,/efr32xg24_explorer_kit/PD04*%
X151130000Y-108712000D03*
%TD*%
D13*
%TO.P,D14,1,K*%
%TO.N,Net-(D14-Pad1)*%
X102209600Y-133959600D03*
D14*
%TO.P,D14,2,A*%
%TO.N,/efr32xg24_explorer_kit/PC00*%
X104749600Y-133959600D03*
%TD*%
D13*
%TO.P,D9,1,K*%
%TO.N,Net-(D9-Pad1)*%
X85953600Y-97434400D03*
D14*
%TO.P,D9,2,A*%
%TO.N,/efr32xg24_explorer_kit/PC08*%
X88493600Y-97434400D03*
%TD*%
D11*
%TO.P,R30,1*%
%TO.N,Net-(D29-Pad1)*%
X150876000Y-78486000D03*
D12*
%TO.P,R30,2*%
%TO.N,/efr32xg24_explorer_kit/PD04*%
X143256000Y-78486000D03*
%TD*%
D13*
%TO.P,D23,1,K*%
%TO.N,Net-(D23-Pad1)*%
X163779200Y-113944400D03*
D14*
%TO.P,D23,2,A*%
%TO.N,/efr32xg24_explorer_kit/PC02*%
X166319200Y-113944400D03*
%TD*%
D11*
%TO.P,R2,1*%
%TO.N,Net-(D1-Pad1)*%
X128016000Y-69342000D03*
D12*
%TO.P,R2,2*%
%TO.N,/efr32xg24_explorer_kit/PA00*%
X128016000Y-76962000D03*
%TD*%
D13*
%TO.P,D2,1,K*%
%TO.N,Net-(D2-Pad1)*%
X125730000Y-61595000D03*
D14*
%TO.P,D2,2,A*%
%TO.N,/efr32xg24_explorer_kit/PB00*%
X128270000Y-61595000D03*
%TD*%
D11*
%TO.P,R3,1*%
%TO.N,Net-(D2-Pad1)*%
X124714000Y-69342000D03*
D12*
%TO.P,R3,2*%
%TO.N,/efr32xg24_explorer_kit/PB01*%
X124714000Y-76962000D03*
%TD*%
D11*
%TO.P,R28,1*%
%TO.N,Net-(D27-Pad1)*%
X159004000Y-87376000D03*
D12*
%TO.P,R28,2*%
%TO.N,/efr32xg24_explorer_kit/PB01*%
X151384000Y-87376000D03*
%TD*%
D13*
%TO.P,D1,1,K*%
%TO.N,Net-(D1-Pad1)*%
X134056200Y-62484000D03*
D14*
%TO.P,D1,2,A*%
%TO.N,/efr32xg24_explorer_kit/PB00*%
X136596200Y-62484000D03*
%TD*%
D11*
%TO.P,R26,1*%
%TO.N,Net-(D25-Pad1)*%
X159004000Y-93980000D03*
D12*
%TO.P,R26,2*%
%TO.N,/efr32xg24_explorer_kit/PB04*%
X151384000Y-93980000D03*
%TD*%
D13*
%TO.P,D22,1,K*%
%TO.N,Net-(D22-Pad1)*%
X160375600Y-121615200D03*
D14*
%TO.P,D22,2,A*%
%TO.N,/efr32xg24_explorer_kit/PC02*%
X162915600Y-121615200D03*
%TD*%
D13*
%TO.P,D27,1,K*%
%TO.N,Net-(D27-Pad1)*%
X160375600Y-81584800D03*
D14*
%TO.P,D27,2,A*%
%TO.N,/efr32xg24_explorer_kit/PC03*%
X162915600Y-81584800D03*
%TD*%
D13*
%TO.P,D25,1,K*%
%TO.N,Net-(D25-Pad1)*%
X165506400Y-97434400D03*
D14*
%TO.P,D25,2,A*%
%TO.N,/efr32xg24_explorer_kit/PC02*%
X168046400Y-97434400D03*
%TD*%
D11*
%TO.P,R12,1*%
%TO.N,Net-(D11-Pad1)*%
X93980000Y-107188000D03*
D12*
%TO.P,R12,2*%
%TO.N,/efr32xg24_explorer_kit/PA00*%
X101600000Y-107188000D03*
%TD*%
D11*
%TO.P,R7,1*%
%TO.N,Net-(D6-Pad1)*%
X108712000Y-71882000D03*
D12*
%TO.P,R7,2*%
%TO.N,/efr32xg24_explorer_kit/PA00*%
X108712000Y-79502000D03*
%TD*%
D11*
%TO.P,R23,1*%
%TO.N,Net-(D22-Pad1)*%
X158750000Y-115316000D03*
D12*
%TO.P,R23,2*%
%TO.N,/efr32xg24_explorer_kit/PB01*%
X151130000Y-115316000D03*
%TD*%
D11*
%TO.P,R4,1*%
%TO.N,Net-(D3-Pad1)*%
X121412000Y-69342000D03*
D12*
%TO.P,R4,2*%
%TO.N,/efr32xg24_explorer_kit/PD05*%
X121412000Y-76962000D03*
%TD*%
D11*
%TO.P,R6,1*%
%TO.N,Net-(D5-Pad1)*%
X112014000Y-71882000D03*
D12*
%TO.P,R6,2*%
%TO.N,/efr32xg24_explorer_kit/PB04*%
X112014000Y-79502000D03*
%TD*%
D13*
%TO.P,D16,1,K*%
%TO.N,Net-(D16-Pad1)*%
X117398800Y-140716000D03*
D14*
%TO.P,D16,2,A*%
%TO.N,/efr32xg24_explorer_kit/PC01*%
X119938800Y-140716000D03*
%TD*%
D11*
%TO.P,R24,1*%
%TO.N,Net-(D23-Pad1)*%
X158750000Y-112014000D03*
D12*
%TO.P,R24,2*%
%TO.N,/efr32xg24_explorer_kit/PD05*%
X151130000Y-112014000D03*
%TD*%
D11*
%TO.P,R16,1*%
%TO.N,Net-(D15-Pad1)*%
X115316000Y-131064000D03*
D12*
%TO.P,R16,2*%
%TO.N,/efr32xg24_explorer_kit/PB04*%
X115316000Y-123444000D03*
%TD*%
D13*
%TO.P,D29,1,K*%
%TO.N,Net-(D29-Pad1)*%
X149250400Y-69240400D03*
D14*
%TO.P,D29,2,A*%
%TO.N,/efr32xg24_explorer_kit/PC03*%
X151790400Y-69240400D03*
%TD*%
D13*
%TO.P,D6,1,K*%
%TO.N,Net-(D6-Pad1)*%
X96012000Y-74828400D03*
D14*
%TO.P,D6,2,A*%
%TO.N,/efr32xg24_explorer_kit/PC08*%
X98552000Y-74828400D03*
%TD*%
D15*
%TO.P,SW1,1,1*%
%TO.N,/efr32xg24_explorer_kit/PB05*%
X172362000Y-134366000D03*
X165862000Y-134366000D03*
%TO.P,SW1,2,2*%
%TO.N,GND*%
X165862000Y-138866000D03*
X172362000Y-138866000D03*
%TD*%
D13*
%TO.P,D12,1,K*%
%TO.N,Net-(D12-Pad1)*%
X91084400Y-121615200D03*
D14*
%TO.P,D12,2,A*%
%TO.N,/efr32xg24_explorer_kit/PC00*%
X93624400Y-121615200D03*
%TD*%
D13*
%TO.P,D21,1,K*%
%TO.N,Net-(D21-Pad1)*%
X155448000Y-128371600D03*
D14*
%TO.P,D21,2,A*%
%TO.N,/efr32xg24_explorer_kit/PC02*%
X157988000Y-128371600D03*
%TD*%
D13*
%TO.P,D8,1,K*%
%TO.N,Net-(D8-Pad1)*%
X87680800Y-89255600D03*
D14*
%TO.P,D8,2,A*%
%TO.N,/efr32xg24_explorer_kit/PC08*%
X90220800Y-89255600D03*
%TD*%
D13*
%TO.P,D13,1,K*%
%TO.N,Net-(D13-Pad1)*%
X96012000Y-128371600D03*
D14*
%TO.P,D13,2,A*%
%TO.N,/efr32xg24_explorer_kit/PC00*%
X98552000Y-128371600D03*
%TD*%
D11*
%TO.P,R11,1*%
%TO.N,Net-(D10-Pad1)*%
X93980000Y-103886000D03*
D12*
%TO.P,R11,2*%
%TO.N,/efr32xg24_explorer_kit/PB04*%
X101600000Y-103886000D03*
%TD*%
D11*
%TO.P,R15,1*%
%TO.N,Net-(D14-Pad1)*%
X112014000Y-131064000D03*
D12*
%TO.P,R15,2*%
%TO.N,/efr32xg24_explorer_kit/PD04*%
X112014000Y-123444000D03*
%TD*%
D11*
%TO.P,R20,1*%
%TO.N,Net-(D19-Pad1)*%
X150622000Y-127254000D03*
D12*
%TO.P,R20,2*%
%TO.N,/efr32xg24_explorer_kit/PD04*%
X143002000Y-127254000D03*
%TD*%
D11*
%TO.P,R19,1*%
%TO.N,Net-(D18-Pad1)*%
X127254000Y-134366000D03*
D12*
%TO.P,R19,2*%
%TO.N,/efr32xg24_explorer_kit/PD05*%
X127254000Y-126746000D03*
%TD*%
D13*
%TO.P,D17,1,K*%
%TO.N,Net-(D17-Pad1)*%
X125730000Y-141579600D03*
D14*
%TO.P,D17,2,A*%
%TO.N,/efr32xg24_explorer_kit/PC01*%
X128270000Y-141579600D03*
%TD*%
D11*
%TO.P,R17,1*%
%TO.N,Net-(D16-Pad1)*%
X120650000Y-134366000D03*
D12*
%TO.P,R17,2*%
%TO.N,/efr32xg24_explorer_kit/PA00*%
X120650000Y-126746000D03*
%TD*%
D13*
%TO.P,D7,1,K*%
%TO.N,Net-(D7-Pad1)*%
X91084400Y-81635600D03*
D14*
%TO.P,D7,2,A*%
%TO.N,/efr32xg24_explorer_kit/PC08*%
X93624400Y-81635600D03*
%TD*%
D13*
%TO.P,D26,1,K*%
%TO.N,Net-(D26-Pad1)*%
X163779200Y-89255600D03*
D14*
%TO.P,D26,2,A*%
%TO.N,/efr32xg24_explorer_kit/PC03*%
X166319200Y-89255600D03*
%TD*%
D13*
%TO.P,D18,1,K*%
%TO.N,Net-(D18-Pad1)*%
X134061200Y-140716000D03*
D14*
%TO.P,D18,2,A*%
%TO.N,/efr32xg24_explorer_kit/PC01*%
X136601200Y-140716000D03*
%TD*%
D13*
%TO.P,D30,1,K*%
%TO.N,Net-(D30-Pad1)*%
X141986000Y-65074800D03*
D14*
%TO.P,D30,2,A*%
%TO.N,/efr32xg24_explorer_kit/PC03*%
X144526000Y-65074800D03*
%TD*%
D11*
%TO.P,R13,1*%
%TO.N,Net-(D12-Pad1)*%
X93980000Y-110490000D03*
D12*
%TO.P,R13,2*%
%TO.N,/efr32xg24_explorer_kit/PB01*%
X101600000Y-110490000D03*
%TD*%
D11*
%TO.P,R18,1*%
%TO.N,Net-(D17-Pad1)*%
X123952000Y-134366000D03*
D12*
%TO.P,R18,2*%
%TO.N,/efr32xg24_explorer_kit/PB01*%
X123952000Y-126746000D03*
%TD*%
D13*
%TO.P,D24,1,K*%
%TO.N,Net-(D24-Pad1)*%
X165506400Y-105765600D03*
D14*
%TO.P,D24,2,A*%
%TO.N,/efr32xg24_explorer_kit/PC02*%
X168046400Y-105765600D03*
%TD*%
D11*
%TO.P,R5,1*%
%TO.N,Net-(D4-Pad1)*%
X115316000Y-71882000D03*
D12*
%TO.P,R5,2*%
%TO.N,/efr32xg24_explorer_kit/PD04*%
X115316000Y-79502000D03*
%TD*%
D11*
%TO.P,R21,1*%
%TO.N,Net-(D20-Pad1)*%
X150622000Y-123952000D03*
D12*
%TO.P,R21,2*%
%TO.N,/efr32xg24_explorer_kit/PB04*%
X143002000Y-123952000D03*
%TD*%
D13*
%TO.P,D20,1,K*%
%TO.N,Net-(D20-Pad1)*%
X149250400Y-133959600D03*
D14*
%TO.P,D20,2,A*%
%TO.N,/efr32xg24_explorer_kit/PC01*%
X151790400Y-133959600D03*
%TD*%
D11*
%TO.P,R8,1*%
%TO.N,Net-(D7-Pad1)*%
X93980000Y-92710000D03*
D12*
%TO.P,R8,2*%
%TO.N,/efr32xg24_explorer_kit/PB01*%
X101600000Y-92710000D03*
%TD*%
D13*
%TO.P,D19,1,K*%
%TO.N,Net-(D19-Pad1)*%
X141986000Y-138176000D03*
D14*
%TO.P,D19,2,A*%
%TO.N,/efr32xg24_explorer_kit/PC01*%
X144526000Y-138176000D03*
%TD*%
D16*
%TO.P,J2,1,Pin_1*%
%TO.N,/efr32xg24_explorer_kit/PA00*%
X118110000Y-90170000D03*
D17*
%TO.P,J2,2,Pin_2*%
%TO.N,/efr32xg24_explorer_kit/PB01*%
X120650000Y-90170000D03*
%TO.P,J2,3,Pin_3*%
%TO.N,/efr32xg24_explorer_kit/PD05*%
X123190000Y-90170000D03*
%TO.P,J2,4,Pin_4*%
%TO.N,/efr32xg24_explorer_kit/PD04*%
X125730000Y-90170000D03*
%TO.P,J2,5,Pin_5*%
%TO.N,/efr32xg24_explorer_kit/PB04*%
X128270000Y-90170000D03*
%TO.P,J2,6,Pin_6*%
%TO.N,/efr32xg24_explorer_kit/PB05*%
X130810000Y-90170000D03*
%TO.P,J2,7,Pin_7*%
%TO.N,+5V*%
X133350000Y-90170000D03*
%TO.P,J2,8,Pin_8*%
%TO.N,GND*%
X135890000Y-90170000D03*
%TD*%
D16*
%TO.P,J1,1,Pin_1*%
%TO.N,/efr32xg24_explorer_kit/PB00*%
X118110000Y-113030000D03*
D17*
%TO.P,J1,2,Pin_2*%
%TO.N,/efr32xg24_explorer_kit/PC08*%
X120650000Y-113030000D03*
%TO.P,J1,3,Pin_3*%
%TO.N,/efr32xg24_explorer_kit/PC00*%
X123190000Y-113030000D03*
%TO.P,J1,4,Pin_4*%
%TO.N,/efr32xg24_explorer_kit/PC01*%
X125730000Y-113030000D03*
%TO.P,J1,5,Pin_5*%
%TO.N,/efr32xg24_explorer_kit/PC02*%
X128270000Y-113030000D03*
%TO.P,J1,6,Pin_6*%
%TO.N,/efr32xg24_explorer_kit/PC03*%
X130810000Y-113030000D03*
%TO.P,J1,7,Pin_7*%
%TO.N,+3V3*%
X133350000Y-113030000D03*
%TO.P,J1,8,Pin_8*%
%TO.N,GND*%
X135890000Y-113030000D03*
%TD*%
D18*
%TO.N,/efr32xg24_explorer_kit/PC01*%
X117924158Y-127693842D03*
%TO.N,/efr32xg24_explorer_kit/PC02*%
X148082000Y-118110000D03*
%TO.N,+3V3*%
X147320000Y-117348000D03*
%TO.N,GND*%
X148082000Y-116586000D03*
%TO.N,/efr32xg24_explorer_kit/PD04*%
X148844000Y-115570000D03*
%TD*%
D19*
%TO.N,/efr32xg24_explorer_kit/PA00*%
X120650000Y-126746000D02*
X107442000Y-126746000D01*
X100330000Y-119634000D02*
X100330000Y-108458000D01*
X107442000Y-126746000D02*
X100330000Y-119634000D01*
X100330000Y-108458000D02*
X101600000Y-107188000D01*
%TO.N,/efr32xg24_explorer_kit/PB01*%
X101600000Y-110490000D02*
X103124000Y-108966000D01*
X103124000Y-108966000D02*
X103124000Y-106426000D01*
X103124000Y-106426000D02*
X102235000Y-105537000D01*
X102235000Y-105537000D02*
X100711000Y-105537000D01*
X100711000Y-105537000D02*
X96969520Y-101795520D01*
X96969520Y-101795520D02*
X96969520Y-97340480D01*
X96969520Y-97340480D02*
X101600000Y-92710000D01*
%TO.N,/efr32xg24_explorer_kit/PB04*%
X110616282Y-82677718D02*
X104521718Y-82677718D01*
X104521718Y-82677718D02*
X103632000Y-83567436D01*
X103632000Y-83567436D02*
X103632000Y-96266000D01*
X103632000Y-96266000D02*
X102108000Y-97790000D01*
X100330000Y-97790000D02*
X99822000Y-98298000D01*
X102108000Y-97790000D02*
X100330000Y-97790000D01*
X99822000Y-98298000D02*
X99822000Y-102108000D01*
X99822000Y-102108000D02*
X101600000Y-103886000D01*
%TO.N,/efr32xg24_explorer_kit/PB01*%
X124714000Y-76962000D02*
X122936000Y-75184000D01*
X109982000Y-78866282D02*
X109982000Y-80518000D01*
X122936000Y-75184000D02*
X113664282Y-75184000D01*
X113664282Y-75184000D02*
X109982000Y-78866282D01*
X109982000Y-80518000D02*
X108721322Y-81778678D01*
X108721322Y-81778678D02*
X104149323Y-81778678D01*
X104149323Y-81778678D02*
X101600000Y-84328000D01*
X101600000Y-84328000D02*
X101600000Y-92710000D01*
%TO.N,/efr32xg24_explorer_kit/PD05*%
X101600000Y-96012000D02*
X103124000Y-94488000D01*
X103124000Y-94488000D02*
X103124000Y-83439718D01*
X103124000Y-83439718D02*
X104335520Y-82228198D01*
X110744000Y-80391718D02*
X110744000Y-78740000D01*
X110744000Y-78740000D02*
X113850480Y-75633520D01*
X104335520Y-82228198D02*
X108907520Y-82228198D01*
X108907520Y-82228198D02*
X110744000Y-80391718D01*
X113850480Y-75633520D02*
X120083520Y-75633520D01*
X120083520Y-75633520D02*
X121412000Y-76962000D01*
%TO.N,/efr32xg24_explorer_kit/PB05*%
X130810000Y-90170000D02*
X130810000Y-81026000D01*
X156659520Y-89857520D02*
X156659520Y-120348142D01*
X130810000Y-81026000D02*
X138684000Y-73152000D01*
X161485520Y-125174142D02*
X161485520Y-132783520D01*
X138684000Y-73152000D02*
X144018000Y-73152000D01*
X144018000Y-73152000D02*
X147574000Y-76708000D01*
X147574000Y-76708000D02*
X147574000Y-84582000D01*
X161485520Y-132783520D02*
X162560000Y-133858000D01*
X147574000Y-84582000D02*
X148590000Y-85598000D01*
X148590000Y-85598000D02*
X152400000Y-85598000D01*
X152400000Y-85598000D02*
X156659520Y-89857520D01*
X156659520Y-120348142D02*
X161485520Y-125174142D01*
%TO.N,Net-(D1-Pad1)*%
X128016000Y-69342000D02*
X129540000Y-69342000D01*
X129540000Y-69342000D02*
X134056200Y-64825800D01*
X134056200Y-64825800D02*
X134056200Y-62484000D01*
%TO.N,/efr32xg24_explorer_kit/PB00*%
X112014000Y-65074800D02*
X112014000Y-64770000D01*
X136596200Y-61158200D02*
X135636000Y-60198000D01*
X104749600Y-65176400D02*
X104749600Y-69240400D01*
X116078000Y-60452000D02*
X112014000Y-64516000D01*
X106680000Y-63246000D02*
X104749600Y-65176400D01*
X110490000Y-63246000D02*
X106680000Y-63246000D01*
X135636000Y-60198000D02*
X129667000Y-60198000D01*
X119938800Y-62484000D02*
X119938800Y-61010800D01*
X127508000Y-59690000D02*
X122732800Y-59690000D01*
X119380000Y-60452000D02*
X116078000Y-60452000D01*
X119938800Y-61010800D02*
X119380000Y-60452000D01*
X129667000Y-60198000D02*
X128270000Y-61595000D01*
X112014000Y-64516000D02*
X112014000Y-65074800D01*
X128270000Y-61595000D02*
X128270000Y-60452000D01*
X128270000Y-60452000D02*
X127508000Y-59690000D01*
X136596200Y-62484000D02*
X136596200Y-61158200D01*
X112014000Y-64770000D02*
X110490000Y-63246000D01*
X122732800Y-59690000D02*
X119938800Y-62484000D01*
%TO.N,Net-(D2-Pad1)*%
X124714000Y-64516000D02*
X125730000Y-63500000D01*
X125730000Y-63500000D02*
X125730000Y-61595000D01*
X124714000Y-69342000D02*
X124714000Y-64516000D01*
%TO.N,Net-(D3-Pad1)*%
X121412000Y-69342000D02*
X121412000Y-66497200D01*
X119380000Y-64465200D02*
X117398800Y-62484000D01*
X121412000Y-66497200D02*
X119380000Y-64465200D01*
%TO.N,Net-(D4-Pad1)*%
X116078000Y-71882000D02*
X109474000Y-65278000D01*
X109474000Y-65278000D02*
X109474000Y-65074800D01*
%TO.N,Net-(D5-Pad1)*%
X107696000Y-69850000D02*
X105664000Y-71882000D01*
X105664000Y-71882000D02*
X103124000Y-71882000D01*
X103124000Y-71882000D02*
X102209600Y-70967600D01*
X112776000Y-71882000D02*
X110744000Y-69850000D01*
X102209600Y-70967600D02*
X102209600Y-69240400D01*
X110744000Y-69850000D02*
X107696000Y-69850000D01*
%TO.N,Net-(D6-Pad1)*%
X108458000Y-72898000D02*
X96774000Y-72898000D01*
X96012000Y-73660000D02*
X96012000Y-74828400D01*
X96774000Y-72898000D02*
X96012000Y-73660000D01*
X109474000Y-71882000D02*
X108458000Y-72898000D01*
%TO.N,/efr32xg24_explorer_kit/PC08*%
X90220800Y-87680800D02*
X88900000Y-86360000D01*
X98552000Y-76708000D02*
X93624400Y-81635600D01*
X85344000Y-91948000D02*
X85344000Y-87630000D01*
X88493600Y-106324400D02*
X88493600Y-105765600D01*
X84582000Y-95504000D02*
X83566000Y-96520000D01*
X88493600Y-97434400D02*
X88493600Y-96875600D01*
X83566000Y-106934000D02*
X84328000Y-107696000D01*
X87122000Y-107696000D02*
X88493600Y-106324400D01*
X90220800Y-89255600D02*
X90220800Y-87680800D01*
X88493600Y-95097600D02*
X85344000Y-91948000D01*
X85344000Y-87630000D02*
X86614000Y-86360000D01*
X84328000Y-107696000D02*
X87122000Y-107696000D01*
X88493600Y-96875600D02*
X87122000Y-95504000D01*
X98552000Y-74828400D02*
X98552000Y-76708000D01*
X88493600Y-97434400D02*
X88493600Y-95097600D01*
X86614000Y-86360000D02*
X88900000Y-86360000D01*
X83566000Y-96520000D02*
X83566000Y-106934000D01*
X87122000Y-95504000D02*
X84582000Y-95504000D01*
%TO.N,Net-(D7-Pad1)*%
X91084400Y-84480400D02*
X93980000Y-87376000D01*
X93980000Y-87376000D02*
X93980000Y-92710000D01*
X91084400Y-81635600D02*
X91084400Y-84480400D01*
%TO.N,Net-(D8-Pad1)*%
X92710000Y-96012000D02*
X87680800Y-90982800D01*
X93980000Y-96012000D02*
X92710000Y-96012000D01*
X87680800Y-90982800D02*
X87680800Y-89255600D01*
%TO.N,Net-(D9-Pad1)*%
X85953600Y-97891600D02*
X85953600Y-97434400D01*
X87376000Y-99314000D02*
X85953600Y-97891600D01*
X93980000Y-99314000D02*
X87376000Y-99314000D01*
%TO.N,Net-(D10-Pad1)*%
X93980000Y-103886000D02*
X87833200Y-103886000D01*
X87833200Y-103886000D02*
X85953600Y-105765600D01*
%TO.N,Net-(D11-Pad1)*%
X87680800Y-113487200D02*
X87680800Y-113944400D01*
X93980000Y-107188000D02*
X87680800Y-113487200D01*
%TO.N,/efr32xg24_explorer_kit/PC00*%
X93624400Y-121767600D02*
X91694000Y-123698000D01*
X108712000Y-140970000D02*
X111252000Y-140970000D01*
X104749600Y-134518400D02*
X103124000Y-136144000D01*
X112014000Y-140208000D02*
X112014000Y-138125200D01*
X104749600Y-137007600D02*
X108712000Y-140970000D01*
X98552000Y-133858000D02*
X98552000Y-128371600D01*
X103124000Y-136144000D02*
X100838000Y-136144000D01*
X94996000Y-130556000D02*
X93624400Y-129184400D01*
X88392000Y-122428000D02*
X88392000Y-115773200D01*
X100838000Y-136144000D02*
X98552000Y-133858000D01*
X93624400Y-129184400D02*
X93624400Y-121615200D01*
X88392000Y-122428000D02*
X89662000Y-123698000D01*
X111252000Y-140970000D02*
X112014000Y-140208000D01*
X88392000Y-115773200D02*
X90220800Y-113944400D01*
X104749600Y-133959600D02*
X104749600Y-137007600D01*
X91694000Y-123698000D02*
X89662000Y-123698000D01*
X96367600Y-130556000D02*
X94996000Y-130556000D01*
X104749600Y-133959600D02*
X104749600Y-134518400D01*
X93624400Y-121615200D02*
X93624400Y-121767600D01*
X98552000Y-128371600D02*
X96367600Y-130556000D01*
%TO.N,Net-(D12-Pad1)*%
X91084400Y-119989600D02*
X91084400Y-121615200D01*
X93980000Y-117094000D02*
X91084400Y-119989600D01*
X93980000Y-110490000D02*
X93980000Y-117094000D01*
%TO.N,Net-(D13-Pad1)*%
X96012000Y-127762000D02*
X97028000Y-126746000D01*
X97028000Y-126746000D02*
X104394000Y-126746000D01*
X104394000Y-126746000D02*
X108712000Y-131064000D01*
X96012000Y-128371600D02*
X96012000Y-127762000D01*
%TO.N,Net-(D14-Pad1)*%
X107696000Y-132334000D02*
X103835200Y-132334000D01*
X109982000Y-133096000D02*
X108458000Y-133096000D01*
X112014000Y-131064000D02*
X109982000Y-133096000D01*
X103835200Y-132334000D02*
X102209600Y-133959600D01*
X108458000Y-133096000D02*
X107696000Y-132334000D01*
%TO.N,Net-(D15-Pad1)*%
X114554000Y-133604000D02*
X115316000Y-132842000D01*
X111252000Y-133604000D02*
X114554000Y-133604000D01*
X115316000Y-132842000D02*
X115316000Y-131064000D01*
X109474000Y-135382000D02*
X111252000Y-133604000D01*
X109474000Y-138125200D02*
X109474000Y-135382000D01*
%TO.N,Net-(D16-Pad1)*%
X117398800Y-140716000D02*
X117398800Y-139141200D01*
X120650000Y-135890000D02*
X120650000Y-134366000D01*
X117398800Y-139141200D02*
X120650000Y-135890000D01*
%TO.N,/efr32xg24_explorer_kit/PC01*%
X122936000Y-143764000D02*
X127254000Y-143764000D01*
X136855200Y-140970000D02*
X136601200Y-140716000D01*
X119938800Y-140716000D02*
X119938800Y-141427200D01*
X115316000Y-136652000D02*
X117924158Y-134043842D01*
X117924158Y-134043842D02*
X117924158Y-127693842D01*
X115316000Y-141732000D02*
X115316000Y-136652000D01*
X135128000Y-143002000D02*
X136601200Y-141528800D01*
X144526000Y-140208000D02*
X143764000Y-140970000D01*
X151790400Y-136753600D02*
X151790400Y-133959600D01*
X150368000Y-138176000D02*
X151790400Y-136753600D01*
X144526000Y-138176000D02*
X150368000Y-138176000D01*
X136601200Y-141528800D02*
X136601200Y-140716000D01*
X128270000Y-142748000D02*
X128270000Y-141579600D01*
X144526000Y-138176000D02*
X144526000Y-140208000D01*
X119938800Y-141427200D02*
X118872000Y-142494000D01*
X127254000Y-143764000D02*
X128270000Y-142748000D01*
X128270000Y-141579600D02*
X129692400Y-143002000D01*
X119888000Y-140716000D02*
X122936000Y-143764000D01*
X119938800Y-140716000D02*
X119888000Y-140716000D01*
X129692400Y-143002000D02*
X135128000Y-143002000D01*
X143764000Y-140970000D02*
X136855200Y-140970000D01*
X116078000Y-142494000D02*
X115316000Y-141732000D01*
X118872000Y-142494000D02*
X116078000Y-142494000D01*
%TO.N,Net-(D17-Pad1)*%
X125730000Y-138938000D02*
X123952000Y-137160000D01*
X123952000Y-137160000D02*
X123952000Y-134366000D01*
X125730000Y-141579600D02*
X125730000Y-138938000D01*
%TO.N,Net-(D18-Pad1)*%
X134061200Y-140716000D02*
X133604000Y-140716000D01*
X133604000Y-140716000D02*
X127254000Y-134366000D01*
%TO.N,Net-(D19-Pad1)*%
X141986000Y-138176000D02*
X141986000Y-135890000D01*
X141986000Y-135890000D02*
X150622000Y-127254000D01*
%TO.N,Net-(D20-Pad1)*%
X152654000Y-128016000D02*
X152654000Y-125984000D01*
X149250400Y-133959600D02*
X149250400Y-131419600D01*
X152654000Y-125984000D02*
X150622000Y-123952000D01*
X149250400Y-131419600D02*
X152654000Y-128016000D01*
%TO.N,Net-(D21-Pad1)*%
X155448000Y-128371600D02*
X155448000Y-125476000D01*
X155448000Y-125476000D02*
X150622000Y-120650000D01*
%TO.N,/efr32xg24_explorer_kit/PC02*%
X164388800Y-121615200D02*
X166319200Y-119684800D01*
X148082000Y-118110000D02*
X149860000Y-118110000D01*
X168046400Y-112217200D02*
X168046400Y-105765600D01*
X162915600Y-121615200D02*
X164388800Y-121615200D01*
X168046400Y-105765600D02*
X168046400Y-97434400D01*
X166319200Y-113944400D02*
X168046400Y-112217200D01*
X149860000Y-118110000D02*
X157988000Y-126238000D01*
X166319200Y-119684800D02*
X166319200Y-113944400D01*
X157988000Y-126238000D02*
X157988000Y-128371600D01*
%TO.N,Net-(D22-Pad1)*%
X160375600Y-121615200D02*
X160375600Y-116941600D01*
X160375600Y-116941600D02*
X158750000Y-115316000D01*
%TO.N,Net-(D23-Pad1)*%
X160680400Y-113944400D02*
X158750000Y-112014000D01*
X163779200Y-113944400D02*
X160680400Y-113944400D01*
%TO.N,Net-(D24-Pad1)*%
X161696400Y-105765600D02*
X158750000Y-108712000D01*
X165506400Y-105765600D02*
X161696400Y-105765600D01*
%TO.N,Net-(D25-Pad1)*%
X162458400Y-97434400D02*
X159004000Y-93980000D01*
X165506400Y-97434400D02*
X162458400Y-97434400D01*
%TO.N,Net-(D26-Pad1)*%
X163779200Y-89255600D02*
X160426400Y-89255600D01*
X160426400Y-89255600D02*
X159004000Y-90678000D01*
%TO.N,/efr32xg24_explorer_kit/PC03*%
X147624800Y-65074800D02*
X144526000Y-65074800D01*
X152400000Y-69240400D02*
X151790400Y-69240400D01*
X166319200Y-84988400D02*
X162915600Y-81584800D01*
X162915600Y-79756000D02*
X157988000Y-74828400D01*
X162915600Y-81584800D02*
X162915600Y-79756000D01*
X166319200Y-89255600D02*
X166319200Y-84988400D01*
X151790400Y-69240400D02*
X147624800Y-65074800D01*
X157988000Y-74828400D02*
X152400000Y-69240400D01*
%TO.N,Net-(D27-Pad1)*%
X159004000Y-82956400D02*
X160375600Y-81584800D01*
X159004000Y-87376000D02*
X159004000Y-82956400D01*
%TO.N,Net-(D28-Pad1)*%
X155448000Y-77216000D02*
X155448000Y-76708000D01*
X155448000Y-76708000D02*
X155448000Y-74828400D01*
X150876000Y-81788000D02*
X155448000Y-77216000D01*
%TO.N,Net-(D29-Pad1)*%
X152908000Y-76200000D02*
X152908000Y-72898000D01*
X150876000Y-78486000D02*
X152908000Y-76454000D01*
X152908000Y-72898000D02*
X149250400Y-69240400D01*
X152908000Y-76454000D02*
X152908000Y-76200000D01*
%TO.N,Net-(D30-Pad1)*%
X141986000Y-68326000D02*
X141986000Y-65074800D01*
X148844000Y-75184000D02*
X141986000Y-68326000D01*
X150876000Y-75184000D02*
X148844000Y-75184000D01*
%TO.N,+3V3*%
X147320000Y-117348000D02*
X151892000Y-117348000D01*
X160528000Y-125984000D02*
X160528000Y-139446000D01*
X160528000Y-139446000D02*
X162560000Y-141478000D01*
X151892000Y-117348000D02*
X160528000Y-125984000D01*
%TO.N,GND*%
X135890000Y-90170000D02*
X135890000Y-113030000D01*
X172362000Y-138866000D02*
X165862000Y-138866000D01*
X152146000Y-116586000D02*
X161036000Y-125476000D01*
X161036000Y-125476000D02*
X161036000Y-134040000D01*
X161036000Y-134040000D02*
X165862000Y-138866000D01*
X148082000Y-116586000D02*
X152146000Y-116586000D01*
%TO.N,/efr32xg24_explorer_kit/PA00*%
X127000000Y-90932000D02*
X125476000Y-92456000D01*
X148970282Y-113411718D02*
X143002000Y-119380000D01*
X120396000Y-92456000D02*
X118110000Y-90170000D01*
X151638000Y-113411718D02*
X148970282Y-113411718D01*
X96520000Y-88772282D02*
X96520000Y-102108000D01*
X106884842Y-81329158D02*
X106729158Y-81329158D01*
X122174000Y-129794000D02*
X130429718Y-129794000D01*
X130429718Y-129794000D02*
X139573718Y-120650000D01*
X113478084Y-74734480D02*
X125788480Y-74734480D01*
X155760480Y-109289238D02*
X151638000Y-113411718D01*
X128016000Y-78486000D02*
X127000000Y-79502000D01*
X103963124Y-81329158D02*
X96520000Y-88772282D01*
X128016000Y-76962000D02*
X128016000Y-78486000D01*
X155760480Y-95054480D02*
X155760480Y-109289238D01*
X120650000Y-128270000D02*
X122174000Y-129794000D01*
X108712000Y-79500564D02*
X113478084Y-74734480D01*
X125476000Y-92456000D02*
X120396000Y-92456000D01*
X151384000Y-90678000D02*
X155760480Y-95054480D01*
X96520000Y-102108000D02*
X101600000Y-107188000D01*
X125788480Y-74734480D02*
X128016000Y-76962000D01*
X108712000Y-79502000D02*
X108712000Y-79500564D01*
X120650000Y-126746000D02*
X120650000Y-128270000D01*
X143002000Y-119380000D02*
X143002000Y-120650000D01*
X139573718Y-120650000D02*
X143002000Y-120650000D01*
X108712000Y-79502000D02*
X106884842Y-81329158D01*
X127000000Y-79502000D02*
X127000000Y-90932000D01*
X106729158Y-81329158D02*
X103963124Y-81329158D01*
%TO.N,/efr32xg24_explorer_kit/PB01*%
X101600000Y-120268282D02*
X101600000Y-110490000D01*
X151130000Y-115316000D02*
X156210000Y-110236000D01*
X107628198Y-126296480D02*
X101600000Y-120268282D01*
X118051520Y-126296480D02*
X107628198Y-126296480D01*
X119634000Y-124714000D02*
X118051520Y-126296480D01*
X156210000Y-110236000D02*
X156210000Y-92202000D01*
X121920000Y-124714000D02*
X119634000Y-124714000D01*
X156210000Y-92202000D02*
X151384000Y-87376000D01*
X123952000Y-126746000D02*
X121920000Y-124714000D01*
%TO.N,/efr32xg24_explorer_kit/PD05*%
X155310960Y-96316660D02*
X155310960Y-107833040D01*
X121412000Y-80772000D02*
X123190000Y-82550000D01*
X119447803Y-124264480D02*
X124772480Y-124264480D01*
X108712000Y-123444000D02*
X111114960Y-125846960D01*
X151196300Y-92202000D02*
X155310960Y-96316660D01*
X123190000Y-82550000D02*
X123190000Y-90170000D01*
X141545803Y-120200480D02*
X149732283Y-112014000D01*
X139387521Y-120200480D02*
X141545803Y-120200480D01*
X124772480Y-124264480D02*
X127254000Y-126746000D01*
X121412000Y-76962000D02*
X121412000Y-80772000D01*
X143256000Y-81788000D02*
X143256000Y-86868000D01*
X111114960Y-125846960D02*
X117865322Y-125846960D01*
X155310960Y-107833040D02*
X151130000Y-112014000D01*
X149732283Y-112014000D02*
X151130000Y-112014000D01*
X148590000Y-92202000D02*
X151196300Y-92202000D01*
X143256000Y-86868000D02*
X148590000Y-92202000D01*
X117865322Y-125846960D02*
X119447803Y-124264480D01*
X127254000Y-126746000D02*
X132842000Y-126746000D01*
X132842000Y-126746000D02*
X139387521Y-120200480D01*
%TO.N,/efr32xg24_explorer_kit/PD04*%
X111690762Y-83127238D02*
X104707916Y-83127238D01*
X125730000Y-90170000D02*
X124206000Y-91694000D01*
X144272000Y-118872000D02*
X144272000Y-125984000D01*
X104081520Y-83753634D02*
X104081520Y-96832480D01*
X121666000Y-85852000D02*
X115316000Y-79502000D01*
X121920000Y-91186000D02*
X121920000Y-86360000D01*
X144272000Y-125984000D02*
X143002000Y-127254000D01*
X115316000Y-79502000D02*
X121920000Y-86106000D01*
X141732000Y-81534000D02*
X141732000Y-79248000D01*
X104081520Y-96832480D02*
X101600000Y-99314000D01*
X151130000Y-96266000D02*
X141732000Y-86868000D01*
X112014000Y-112014000D02*
X112014000Y-123444000D01*
X147574000Y-115570000D02*
X144272000Y-118872000D01*
X101600000Y-101600000D02*
X112014000Y-112014000D01*
X115316000Y-79502000D02*
X111690762Y-83127238D01*
X121920000Y-86106000D02*
X121920000Y-86360000D01*
X141732000Y-86868000D02*
X141732000Y-81788000D01*
X141732000Y-79248000D02*
X141732000Y-81788000D01*
X141732000Y-81788000D02*
X141732000Y-81534000D01*
X104707916Y-83127238D02*
X104081520Y-83753634D01*
X101600000Y-99314000D02*
X101600000Y-101600000D01*
X148844000Y-115570000D02*
X147574000Y-115570000D01*
X142494000Y-78486000D02*
X141732000Y-79248000D01*
X121920000Y-85852000D02*
X121666000Y-85852000D01*
X121920000Y-86360000D02*
X121920000Y-85852000D01*
X124206000Y-91694000D02*
X122428000Y-91694000D01*
X151130000Y-108712000D02*
X151130000Y-96266000D01*
X122428000Y-91694000D02*
X121920000Y-91186000D01*
X143256000Y-78486000D02*
X142494000Y-78486000D01*
%TO.N,/efr32xg24_explorer_kit/PB04*%
X113362560Y-125397440D02*
X115316000Y-123444000D01*
X111506718Y-81788718D02*
X110617717Y-82677718D01*
X111681440Y-125397440D02*
X113362560Y-125397440D01*
X112014000Y-81281436D02*
X112014000Y-79502000D01*
X110236000Y-112522000D02*
X110236000Y-123952000D01*
X110236000Y-123952000D02*
X111681440Y-125397440D01*
X112014000Y-79502000D02*
X112014000Y-81280000D01*
X112014000Y-81281436D02*
X111506718Y-81788718D01*
X112014000Y-81280000D02*
X110616282Y-82677718D01*
X110617717Y-82677718D02*
X110616282Y-82677718D01*
X101600000Y-103886000D02*
X110236000Y-112522000D01*
%TO.N,/efr32xg24_explorer_kit/PB05*%
X171600000Y-133604000D02*
X172362000Y-134366000D01*
X162560000Y-133858000D02*
X165354000Y-133858000D01*
X166624000Y-133604000D02*
X171600000Y-133604000D01*
X165354000Y-133858000D02*
X165862000Y-134366000D01*
X165862000Y-134366000D02*
X166624000Y-133604000D01*
%TD*%
M02*
