%TF.GenerationSoftware,KiCad,Pcbnew,6.0.2+dfsg-1*%
%TF.CreationDate,2024-09-01T22:19:58+09:00*%
%TF.ProjectId,roulette,726f756c-6574-4746-952e-6b696361645f,A*%
%TF.SameCoordinates,Original*%
%TF.FileFunction,Copper,L1,Top*%
%TF.FilePolarity,Positive*%
%FSLAX46Y46*%
G04 Gerber Fmt 4.6, Leading zero omitted, Abs format (unit mm)*
G04 Created by KiCad (PCBNEW 6.0.2+dfsg-1) date 2024-09-01 22:19:58*
%MOMM*%
%LPD*%
G01*
G04 APERTURE LIST*
%TA.AperFunction,Profile*%
%ADD10C,0.200000*%
%TD*%
%TA.AperFunction,ComponentPad*%
%ADD11C,1.600000*%
%TD*%
%TA.AperFunction,ComponentPad*%
%ADD12O,1.600000X1.600000*%
%TD*%
%TA.AperFunction,ComponentPad*%
%ADD13R,1.800000X1.800000*%
%TD*%
%TA.AperFunction,ComponentPad*%
%ADD14C,1.800000*%
%TD*%
%TA.AperFunction,ComponentPad*%
%ADD15C,2.000000*%
%TD*%
%TA.AperFunction,ComponentPad*%
%ADD16R,1.700000X1.700000*%
%TD*%
%TA.AperFunction,ComponentPad*%
%ADD17O,1.700000X1.700000*%
%TD*%
%TA.AperFunction,ViaPad*%
%ADD18C,0.800000*%
%TD*%
%TA.AperFunction,Conductor*%
%ADD19C,0.250000*%
%TD*%
G04 APERTURE END LIST*
D10*
X83750000Y-56600000D02*
G75*
G03*
X83750000Y-56600000I-1750000J0D01*
G01*
X172000000Y-51600000D02*
X82000000Y-51600000D01*
X82000000Y-51600000D02*
G75*
G03*
X77000000Y-56600000I0J-5000000D01*
G01*
X173750000Y-146600000D02*
G75*
G03*
X173750000Y-146600000I-1750000J0D01*
G01*
X172000000Y-151600000D02*
G75*
G03*
X177000000Y-146600000I0J5000000D01*
G01*
X177000000Y-146600000D02*
X177000000Y-56600000D01*
X83750000Y-146600000D02*
G75*
G03*
X83750000Y-146600000I-1750000J0D01*
G01*
X177000000Y-56600000D02*
G75*
G03*
X172000000Y-51600000I-5000000J0D01*
G01*
X173750000Y-56600000D02*
G75*
G03*
X173750000Y-56600000I-1750000J0D01*
G01*
X77000000Y-146600000D02*
X77000000Y-56600000D01*
X77000000Y-146600000D02*
G75*
G03*
X82000000Y-151600000I5000000J0D01*
G01*
X172000000Y-151600000D02*
X82000000Y-151600000D01*
D11*
%TO.P,R31,1*%
%TO.N,Net-(D30-Pad1)*%
X150876000Y-75184000D03*
D12*
%TO.P,R31,2*%
%TO.N,/efr32xg24_explorer_kit/PB04*%
X143256000Y-75184000D03*
%TD*%
D13*
%TO.P,D11,1,K*%
%TO.N,Net-(D11-Pad1)*%
X87680800Y-113944400D03*
D14*
%TO.P,D11,2,A*%
%TO.N,/efr32xg24_explorer_kit/PC00*%
X90220800Y-113944400D03*
%TD*%
D13*
%TO.P,D4,1,K*%
%TO.N,Net-(D4-Pad1)*%
X109474000Y-65074800D03*
D14*
%TO.P,D4,2,A*%
%TO.N,/efr32xg24_explorer_kit/PB00*%
X112014000Y-65074800D03*
%TD*%
D13*
%TO.P,D10,1,K*%
%TO.N,Net-(D10-Pad1)*%
X85953600Y-105765600D03*
D14*
%TO.P,D10,2,A*%
%TO.N,/efr32xg24_explorer_kit/PC08*%
X88493600Y-105765600D03*
%TD*%
D11*
%TO.P,R14,1*%
%TO.N,Net-(D13-Pad1)*%
X108712000Y-131064000D03*
D12*
%TO.P,R14,2*%
%TO.N,/efr32xg24_explorer_kit/PD05*%
X108712000Y-123444000D03*
%TD*%
D13*
%TO.P,D3,1,K*%
%TO.N,Net-(D3-Pad1)*%
X117398800Y-62484000D03*
D14*
%TO.P,D3,2,A*%
%TO.N,/efr32xg24_explorer_kit/PB00*%
X119938800Y-62484000D03*
%TD*%
D11*
%TO.P,R10,1*%
%TO.N,Net-(D9-Pad1)*%
X93980000Y-99314000D03*
D12*
%TO.P,R10,2*%
%TO.N,/efr32xg24_explorer_kit/PD04*%
X101600000Y-99314000D03*
%TD*%
D13*
%TO.P,D28,1,K*%
%TO.N,Net-(D28-Pad1)*%
X155448000Y-74828400D03*
D14*
%TO.P,D28,2,A*%
%TO.N,/efr32xg24_explorer_kit/PC03*%
X157988000Y-74828400D03*
%TD*%
D11*
%TO.P,R1,1*%
%TO.N,+3V3*%
X162560000Y-141478000D03*
D12*
%TO.P,R1,2*%
%TO.N,/efr32xg24_explorer_kit/PB05*%
X162560000Y-133858000D03*
%TD*%
D11*
%TO.P,R29,1*%
%TO.N,Net-(D28-Pad1)*%
X150876000Y-81788000D03*
D12*
%TO.P,R29,2*%
%TO.N,/efr32xg24_explorer_kit/PD05*%
X143256000Y-81788000D03*
%TD*%
D11*
%TO.P,R9,1*%
%TO.N,Net-(D8-Pad1)*%
X93980000Y-96012000D03*
D12*
%TO.P,R9,2*%
%TO.N,/efr32xg24_explorer_kit/PD05*%
X101600000Y-96012000D03*
%TD*%
D13*
%TO.P,D5,1,K*%
%TO.N,Net-(D5-Pad1)*%
X102209600Y-69240400D03*
D14*
%TO.P,D5,2,A*%
%TO.N,/efr32xg24_explorer_kit/PB00*%
X104749600Y-69240400D03*
%TD*%
D11*
%TO.P,R22,1*%
%TO.N,Net-(D21-Pad1)*%
X150622000Y-120650000D03*
D12*
%TO.P,R22,2*%
%TO.N,/efr32xg24_explorer_kit/PA00*%
X143002000Y-120650000D03*
%TD*%
D13*
%TO.P,D15,1,K*%
%TO.N,Net-(D15-Pad1)*%
X109474000Y-138125200D03*
D14*
%TO.P,D15,2,A*%
%TO.N,/efr32xg24_explorer_kit/PC00*%
X112014000Y-138125200D03*
%TD*%
D11*
%TO.P,R27,1*%
%TO.N,Net-(D26-Pad1)*%
X159004000Y-90678000D03*
D12*
%TO.P,R27,2*%
%TO.N,/efr32xg24_explorer_kit/PA00*%
X151384000Y-90678000D03*
%TD*%
D11*
%TO.P,R25,1*%
%TO.N,Net-(D24-Pad1)*%
X158750000Y-108712000D03*
D12*
%TO.P,R25,2*%
%TO.N,/efr32xg24_explorer_kit/PD04*%
X151130000Y-108712000D03*
%TD*%
D13*
%TO.P,D14,1,K*%
%TO.N,Net-(D14-Pad1)*%
X102209600Y-133959600D03*
D14*
%TO.P,D14,2,A*%
%TO.N,/efr32xg24_explorer_kit/PC00*%
X104749600Y-133959600D03*
%TD*%
D13*
%TO.P,D9,1,K*%
%TO.N,Net-(D9-Pad1)*%
X85953600Y-97434400D03*
D14*
%TO.P,D9,2,A*%
%TO.N,/efr32xg24_explorer_kit/PC08*%
X88493600Y-97434400D03*
%TD*%
D11*
%TO.P,R30,1*%
%TO.N,Net-(D29-Pad1)*%
X150876000Y-78486000D03*
D12*
%TO.P,R30,2*%
%TO.N,/efr32xg24_explorer_kit/PD04*%
X143256000Y-78486000D03*
%TD*%
D13*
%TO.P,D23,1,K*%
%TO.N,Net-(D23-Pad1)*%
X163779200Y-113944400D03*
D14*
%TO.P,D23,2,A*%
%TO.N,/efr32xg24_explorer_kit/PC02*%
X166319200Y-113944400D03*
%TD*%
D11*
%TO.P,R2,1*%
%TO.N,Net-(D1-Pad1)*%
X128016000Y-69342000D03*
D12*
%TO.P,R2,2*%
%TO.N,/efr32xg24_explorer_kit/PA00*%
X128016000Y-76962000D03*
%TD*%
D13*
%TO.P,D2,1,K*%
%TO.N,Net-(D2-Pad1)*%
X125730000Y-61595000D03*
D14*
%TO.P,D2,2,A*%
%TO.N,/efr32xg24_explorer_kit/PB00*%
X128270000Y-61595000D03*
%TD*%
D11*
%TO.P,R3,1*%
%TO.N,Net-(D2-Pad1)*%
X124714000Y-69342000D03*
D12*
%TO.P,R3,2*%
%TO.N,/efr32xg24_explorer_kit/PB01*%
X124714000Y-76962000D03*
%TD*%
D11*
%TO.P,R28,1*%
%TO.N,Net-(D27-Pad1)*%
X159004000Y-87376000D03*
D12*
%TO.P,R28,2*%
%TO.N,/efr32xg24_explorer_kit/PB01*%
X151384000Y-87376000D03*
%TD*%
D13*
%TO.P,D1,1,K*%
%TO.N,Net-(D1-Pad1)*%
X134056200Y-62484000D03*
D14*
%TO.P,D1,2,A*%
%TO.N,/efr32xg24_explorer_kit/PB00*%
X136596200Y-62484000D03*
%TD*%
D11*
%TO.P,R26,1*%
%TO.N,Net-(D25-Pad1)*%
X159004000Y-93980000D03*
D12*
%TO.P,R26,2*%
%TO.N,/efr32xg24_explorer_kit/PB04*%
X151384000Y-93980000D03*
%TD*%
D13*
%TO.P,D22,1,K*%
%TO.N,Net-(D22-Pad1)*%
X160375600Y-121615200D03*
D14*
%TO.P,D22,2,A*%
%TO.N,/efr32xg24_explorer_kit/PC02*%
X162915600Y-121615200D03*
%TD*%
D13*
%TO.P,D27,1,K*%
%TO.N,Net-(D27-Pad1)*%
X160375600Y-81584800D03*
D14*
%TO.P,D27,2,A*%
%TO.N,/efr32xg24_explorer_kit/PC03*%
X162915600Y-81584800D03*
%TD*%
D13*
%TO.P,D25,1,K*%
%TO.N,Net-(D25-Pad1)*%
X165506400Y-97434400D03*
D14*
%TO.P,D25,2,A*%
%TO.N,/efr32xg24_explorer_kit/PC02*%
X168046400Y-97434400D03*
%TD*%
D11*
%TO.P,R12,1*%
%TO.N,Net-(D11-Pad1)*%
X93980000Y-107188000D03*
D12*
%TO.P,R12,2*%
%TO.N,/efr32xg24_explorer_kit/PA00*%
X101600000Y-107188000D03*
%TD*%
D11*
%TO.P,R7,1*%
%TO.N,Net-(D6-Pad1)*%
X108712000Y-71882000D03*
D12*
%TO.P,R7,2*%
%TO.N,/efr32xg24_explorer_kit/PA00*%
X108712000Y-79502000D03*
%TD*%
D11*
%TO.P,R23,1*%
%TO.N,Net-(D22-Pad1)*%
X158750000Y-115316000D03*
D12*
%TO.P,R23,2*%
%TO.N,/efr32xg24_explorer_kit/PB01*%
X151130000Y-115316000D03*
%TD*%
D11*
%TO.P,R4,1*%
%TO.N,Net-(D3-Pad1)*%
X121412000Y-69342000D03*
D12*
%TO.P,R4,2*%
%TO.N,/efr32xg24_explorer_kit/PD05*%
X121412000Y-76962000D03*
%TD*%
D11*
%TO.P,R6,1*%
%TO.N,Net-(D5-Pad1)*%
X112014000Y-71882000D03*
D12*
%TO.P,R6,2*%
%TO.N,/efr32xg24_explorer_kit/PB04*%
X112014000Y-79502000D03*
%TD*%
D13*
%TO.P,D16,1,K*%
%TO.N,Net-(D16-Pad1)*%
X117398800Y-140716000D03*
D14*
%TO.P,D16,2,A*%
%TO.N,/efr32xg24_explorer_kit/PC01*%
X119938800Y-140716000D03*
%TD*%
D11*
%TO.P,R24,1*%
%TO.N,Net-(D23-Pad1)*%
X158750000Y-112014000D03*
D12*
%TO.P,R24,2*%
%TO.N,/efr32xg24_explorer_kit/PD05*%
X151130000Y-112014000D03*
%TD*%
D11*
%TO.P,R16,1*%
%TO.N,Net-(D15-Pad1)*%
X115316000Y-131064000D03*
D12*
%TO.P,R16,2*%
%TO.N,/efr32xg24_explorer_kit/PB04*%
X115316000Y-123444000D03*
%TD*%
D13*
%TO.P,D29,1,K*%
%TO.N,Net-(D29-Pad1)*%
X149250400Y-69240400D03*
D14*
%TO.P,D29,2,A*%
%TO.N,/efr32xg24_explorer_kit/PC03*%
X151790400Y-69240400D03*
%TD*%
D13*
%TO.P,D6,1,K*%
%TO.N,Net-(D6-Pad1)*%
X96012000Y-74828400D03*
D14*
%TO.P,D6,2,A*%
%TO.N,/efr32xg24_explorer_kit/PC08*%
X98552000Y-74828400D03*
%TD*%
D15*
%TO.P,SW1,1,1*%
%TO.N,/efr32xg24_explorer_kit/PB05*%
X172362000Y-134366000D03*
X165862000Y-134366000D03*
%TO.P,SW1,2,2*%
%TO.N,GND*%
X165862000Y-138866000D03*
X172362000Y-138866000D03*
%TD*%
D13*
%TO.P,D12,1,K*%
%TO.N,Net-(D12-Pad1)*%
X91084400Y-121615200D03*
D14*
%TO.P,D12,2,A*%
%TO.N,/efr32xg24_explorer_kit/PC00*%
X93624400Y-121615200D03*
%TD*%
D13*
%TO.P,D21,1,K*%
%TO.N,Net-(D21-Pad1)*%
X155448000Y-128371600D03*
D14*
%TO.P,D21,2,A*%
%TO.N,/efr32xg24_explorer_kit/PC02*%
X157988000Y-128371600D03*
%TD*%
D13*
%TO.P,D8,1,K*%
%TO.N,Net-(D8-Pad1)*%
X87680800Y-89255600D03*
D14*
%TO.P,D8,2,A*%
%TO.N,/efr32xg24_explorer_kit/PC08*%
X90220800Y-89255600D03*
%TD*%
D13*
%TO.P,D13,1,K*%
%TO.N,Net-(D13-Pad1)*%
X96012000Y-128371600D03*
D14*
%TO.P,D13,2,A*%
%TO.N,/efr32xg24_explorer_kit/PC00*%
X98552000Y-128371600D03*
%TD*%
D11*
%TO.P,R11,1*%
%TO.N,Net-(D10-Pad1)*%
X93980000Y-103886000D03*
D12*
%TO.P,R11,2*%
%TO.N,/efr32xg24_explorer_kit/PB04*%
X101600000Y-103886000D03*
%TD*%
D11*
%TO.P,R15,1*%
%TO.N,Net-(D14-Pad1)*%
X112014000Y-131064000D03*
D12*
%TO.P,R15,2*%
%TO.N,/efr32xg24_explorer_kit/PD04*%
X112014000Y-123444000D03*
%TD*%
D11*
%TO.P,R20,1*%
%TO.N,Net-(D19-Pad1)*%
X150622000Y-127254000D03*
D12*
%TO.P,R20,2*%
%TO.N,/efr32xg24_explorer_kit/PD04*%
X143002000Y-127254000D03*
%TD*%
D11*
%TO.P,R19,1*%
%TO.N,Net-(D18-Pad1)*%
X127254000Y-134366000D03*
D12*
%TO.P,R19,2*%
%TO.N,/efr32xg24_explorer_kit/PD05*%
X127254000Y-126746000D03*
%TD*%
D13*
%TO.P,D17,1,K*%
%TO.N,Net-(D17-Pad1)*%
X125730000Y-141579600D03*
D14*
%TO.P,D17,2,A*%
%TO.N,/efr32xg24_explorer_kit/PC01*%
X128270000Y-141579600D03*
%TD*%
D11*
%TO.P,R17,1*%
%TO.N,Net-(D16-Pad1)*%
X120650000Y-134366000D03*
D12*
%TO.P,R17,2*%
%TO.N,/efr32xg24_explorer_kit/PA00*%
X120650000Y-126746000D03*
%TD*%
D13*
%TO.P,D7,1,K*%
%TO.N,Net-(D7-Pad1)*%
X91084400Y-81635600D03*
D14*
%TO.P,D7,2,A*%
%TO.N,/efr32xg24_explorer_kit/PC08*%
X93624400Y-81635600D03*
%TD*%
D13*
%TO.P,D26,1,K*%
%TO.N,Net-(D26-Pad1)*%
X163779200Y-89255600D03*
D14*
%TO.P,D26,2,A*%
%TO.N,/efr32xg24_explorer_kit/PC03*%
X166319200Y-89255600D03*
%TD*%
D13*
%TO.P,D18,1,K*%
%TO.N,Net-(D18-Pad1)*%
X134061200Y-140716000D03*
D14*
%TO.P,D18,2,A*%
%TO.N,/efr32xg24_explorer_kit/PC01*%
X136601200Y-140716000D03*
%TD*%
D13*
%TO.P,D30,1,K*%
%TO.N,Net-(D30-Pad1)*%
X141986000Y-65074800D03*
D14*
%TO.P,D30,2,A*%
%TO.N,/efr32xg24_explorer_kit/PC03*%
X144526000Y-65074800D03*
%TD*%
D11*
%TO.P,R13,1*%
%TO.N,Net-(D12-Pad1)*%
X93980000Y-110490000D03*
D12*
%TO.P,R13,2*%
%TO.N,/efr32xg24_explorer_kit/PB01*%
X101600000Y-110490000D03*
%TD*%
D11*
%TO.P,R18,1*%
%TO.N,Net-(D17-Pad1)*%
X123952000Y-134366000D03*
D12*
%TO.P,R18,2*%
%TO.N,/efr32xg24_explorer_kit/PB01*%
X123952000Y-126746000D03*
%TD*%
D13*
%TO.P,D24,1,K*%
%TO.N,Net-(D24-Pad1)*%
X165506400Y-105765600D03*
D14*
%TO.P,D24,2,A*%
%TO.N,/efr32xg24_explorer_kit/PC02*%
X168046400Y-105765600D03*
%TD*%
D11*
%TO.P,R5,1*%
%TO.N,Net-(D4-Pad1)*%
X115316000Y-71882000D03*
D12*
%TO.P,R5,2*%
%TO.N,/efr32xg24_explorer_kit/PD04*%
X115316000Y-79502000D03*
%TD*%
D11*
%TO.P,R21,1*%
%TO.N,Net-(D20-Pad1)*%
X150622000Y-123952000D03*
D12*
%TO.P,R21,2*%
%TO.N,/efr32xg24_explorer_kit/PB04*%
X143002000Y-123952000D03*
%TD*%
D13*
%TO.P,D20,1,K*%
%TO.N,Net-(D20-Pad1)*%
X149250400Y-133959600D03*
D14*
%TO.P,D20,2,A*%
%TO.N,/efr32xg24_explorer_kit/PC01*%
X151790400Y-133959600D03*
%TD*%
D11*
%TO.P,R8,1*%
%TO.N,Net-(D7-Pad1)*%
X93980000Y-92710000D03*
D12*
%TO.P,R8,2*%
%TO.N,/efr32xg24_explorer_kit/PB01*%
X101600000Y-92710000D03*
%TD*%
D13*
%TO.P,D19,1,K*%
%TO.N,Net-(D19-Pad1)*%
X141986000Y-138176000D03*
D14*
%TO.P,D19,2,A*%
%TO.N,/efr32xg24_explorer_kit/PC01*%
X144526000Y-138176000D03*
%TD*%
D16*
%TO.P,J2,1,Pin_1*%
%TO.N,/efr32xg24_explorer_kit/PA00*%
X118110000Y-90170000D03*
D17*
%TO.P,J2,2,Pin_2*%
%TO.N,/efr32xg24_explorer_kit/PB01*%
X120650000Y-90170000D03*
%TO.P,J2,3,Pin_3*%
%TO.N,/efr32xg24_explorer_kit/PD05*%
X123190000Y-90170000D03*
%TO.P,J2,4,Pin_4*%
%TO.N,/efr32xg24_explorer_kit/PD04*%
X125730000Y-90170000D03*
%TO.P,J2,5,Pin_5*%
%TO.N,/efr32xg24_explorer_kit/PB04*%
X128270000Y-90170000D03*
%TO.P,J2,6,Pin_6*%
%TO.N,/efr32xg24_explorer_kit/PB05*%
X130810000Y-90170000D03*
%TO.P,J2,7,Pin_7*%
%TO.N,+5V*%
X133350000Y-90170000D03*
%TO.P,J2,8,Pin_8*%
%TO.N,GND*%
X135890000Y-90170000D03*
%TD*%
D16*
%TO.P,J1,1,Pin_1*%
%TO.N,/efr32xg24_explorer_kit/PB00*%
X118110000Y-113030000D03*
D17*
%TO.P,J1,2,Pin_2*%
%TO.N,/efr32xg24_explorer_kit/PC08*%
X120650000Y-113030000D03*
%TO.P,J1,3,Pin_3*%
%TO.N,/efr32xg24_explorer_kit/PC00*%
X123190000Y-113030000D03*
%TO.P,J1,4,Pin_4*%
%TO.N,/efr32xg24_explorer_kit/PC01*%
X125730000Y-113030000D03*
%TO.P,J1,5,Pin_5*%
%TO.N,/efr32xg24_explorer_kit/PC02*%
X128270000Y-113030000D03*
%TO.P,J1,6,Pin_6*%
%TO.N,/efr32xg24_explorer_kit/PC03*%
X130810000Y-113030000D03*
%TO.P,J1,7,Pin_7*%
%TO.N,+3V3*%
X133350000Y-113030000D03*
%TO.P,J1,8,Pin_8*%
%TO.N,GND*%
X135890000Y-113030000D03*
%TD*%
D18*
%TO.N,/efr32xg24_explorer_kit/PC01*%
X117924158Y-127693842D03*
%TO.N,/efr32xg24_explorer_kit/PC02*%
X148082000Y-118110000D03*
%TO.N,+3V3*%
X147320000Y-117348000D03*
%TO.N,GND*%
X148082000Y-116586000D03*
%TO.N,/efr32xg24_explorer_kit/PD04*%
X148844000Y-115570000D03*
%TD*%
D19*
%TO.N,/efr32xg24_explorer_kit/PB00*%
X104749600Y-103225600D02*
X104749600Y-69240400D01*
X114554000Y-113030000D02*
X104749600Y-103225600D01*
X118110000Y-113030000D02*
X114554000Y-113030000D01*
%TO.N,/efr32xg24_explorer_kit/PC08*%
X93624400Y-85852000D02*
X90220800Y-89255600D01*
X93624400Y-81635600D02*
X93624400Y-85852000D01*
X95662511Y-114204511D02*
X88493600Y-107035600D01*
X119475489Y-114204511D02*
X95662511Y-114204511D01*
X120650000Y-113030000D02*
X119475489Y-114204511D01*
X88493600Y-107035600D02*
X88493600Y-105765600D01*
%TO.N,/efr32xg24_explorer_kit/PC00*%
X110744000Y-122682000D02*
X110744000Y-134874000D01*
X110744000Y-134874000D02*
X112014000Y-136144000D01*
X114808000Y-121412000D02*
X112014000Y-121412000D01*
X123190000Y-113030000D02*
X114808000Y-121412000D01*
X112014000Y-121412000D02*
X110744000Y-122682000D01*
X112014000Y-136144000D02*
X112014000Y-138125200D01*
%TO.N,/efr32xg24_explorer_kit/PC01*%
X125730000Y-113030000D02*
X118110000Y-120650000D01*
X117924158Y-120835842D02*
X117924158Y-127693842D01*
X118110000Y-120650000D02*
X117924158Y-120835842D01*
%TO.N,/efr32xg24_explorer_kit/PC02*%
X131826000Y-118110000D02*
X128270000Y-114554000D01*
X160172400Y-128371600D02*
X157988000Y-128371600D01*
X162915600Y-125628400D02*
X160172400Y-128371600D01*
X148082000Y-118110000D02*
X131826000Y-118110000D01*
X128270000Y-114554000D02*
X128270000Y-113030000D01*
X162915600Y-121615200D02*
X162915600Y-125628400D01*
%TO.N,/efr32xg24_explorer_kit/PC03*%
X144526000Y-65074800D02*
X144526000Y-66548000D01*
X139700000Y-104140000D02*
X130810000Y-113030000D01*
X144526000Y-66548000D02*
X139700000Y-71374000D01*
X139700000Y-71374000D02*
X139700000Y-104140000D01*
%TO.N,+3V3*%
X133350000Y-115570000D02*
X133350000Y-113030000D01*
X147320000Y-117348000D02*
X135128000Y-117348000D01*
X135128000Y-117348000D02*
X133350000Y-115570000D01*
%TO.N,GND*%
X148082000Y-116586000D02*
X137414000Y-116586000D01*
X135890000Y-115062000D02*
X135890000Y-113030000D01*
X137414000Y-116586000D02*
X135890000Y-115062000D01*
%TO.N,/efr32xg24_explorer_kit/PB01*%
X151130000Y-116586000D02*
X145288000Y-122428000D01*
X151130000Y-115316000D02*
X151130000Y-116586000D01*
X126238000Y-129032000D02*
X123952000Y-126746000D01*
X124714000Y-84328000D02*
X124714000Y-76962000D01*
X135890000Y-129032000D02*
X126238000Y-129032000D01*
X120650000Y-88392000D02*
X124714000Y-84328000D01*
X145288000Y-122428000D02*
X142494000Y-122428000D01*
X120650000Y-90170000D02*
X120650000Y-88392000D01*
X142494000Y-122428000D02*
X135890000Y-129032000D01*
%TO.N,/efr32xg24_explorer_kit/PD05*%
X82042000Y-103378000D02*
X83566000Y-101854000D01*
X100076000Y-96012000D02*
X101600000Y-96012000D01*
X106526031Y-114654031D02*
X95476313Y-114654031D01*
X83566000Y-101854000D02*
X94234000Y-101854000D01*
X108712000Y-123444000D02*
X108712000Y-116840000D01*
X82042000Y-107950000D02*
X82042000Y-103378000D01*
X84074000Y-109982000D02*
X82042000Y-107950000D01*
X90804282Y-109982000D02*
X84074000Y-109982000D01*
X95476313Y-114654031D02*
X90804282Y-109982000D01*
X94234000Y-101854000D02*
X100076000Y-96012000D01*
X108712000Y-116840000D02*
X106526031Y-114654031D01*
%TO.N,/efr32xg24_explorer_kit/PD04*%
X143002000Y-127254000D02*
X140324960Y-129931040D01*
X151130000Y-109728000D02*
X151130000Y-108712000D01*
X149606000Y-111252000D02*
X151130000Y-109728000D01*
X118501040Y-129931040D02*
X112014000Y-123444000D01*
X149606000Y-114808000D02*
X149606000Y-111252000D01*
X148844000Y-115570000D02*
X149606000Y-114808000D01*
X140324960Y-129931040D02*
X118501040Y-129931040D01*
%TO.N,/efr32xg24_explorer_kit/PB04*%
X128270000Y-91948000D02*
X126746000Y-93472000D01*
X118618000Y-93472000D02*
X112776000Y-87630000D01*
X115316000Y-126110282D02*
X118687238Y-129481520D01*
X153162000Y-115824000D02*
X153162000Y-95758000D01*
X128270000Y-90170000D02*
X128270000Y-91948000D01*
X126746000Y-93472000D02*
X118618000Y-93472000D01*
X112776000Y-87630000D02*
X112014000Y-86868000D01*
X112014000Y-86868000D02*
X112014000Y-79502000D01*
X118687238Y-129481520D02*
X137472480Y-129481520D01*
X153162000Y-95758000D02*
X151384000Y-93980000D01*
X143256000Y-75184000D02*
X145034000Y-76962000D01*
X137472480Y-129481520D02*
X143002000Y-123952000D01*
X145034000Y-87630000D02*
X151384000Y-93980000D01*
X115316000Y-123444000D02*
X115316000Y-126110282D01*
X145034000Y-123952000D02*
X153162000Y-115824000D01*
X143002000Y-123952000D02*
X145034000Y-123952000D01*
X145034000Y-76962000D02*
X145034000Y-87630000D01*
%TD*%
M02*
