%TF.GenerationSoftware,KiCad,Pcbnew,6.0.2+dfsg-1*%
%TF.CreationDate,2024-09-01T22:19:58+09:00*%
%TF.ProjectId,roulette,726f756c-6574-4746-952e-6b696361645f,A*%
%TF.SameCoordinates,Original*%
%TF.FileFunction,Soldermask,Bot*%
%TF.FilePolarity,Negative*%
%FSLAX46Y46*%
G04 Gerber Fmt 4.6, Leading zero omitted, Abs format (unit mm)*
G04 Created by KiCad (PCBNEW 6.0.2+dfsg-1) date 2024-09-01 22:19:58*
%MOMM*%
%LPD*%
G01*
G04 APERTURE LIST*
%TA.AperFunction,Profile*%
%ADD10C,0.200000*%
%TD*%
%ADD11C,1.600000*%
%ADD12O,1.600000X1.600000*%
%ADD13R,1.800000X1.800000*%
%ADD14C,1.800000*%
%ADD15C,2.000000*%
%ADD16R,1.700000X1.700000*%
%ADD17O,1.700000X1.700000*%
G04 APERTURE END LIST*
D10*
X83750000Y-56600000D02*
G75*
G03*
X83750000Y-56600000I-1750000J0D01*
G01*
X172000000Y-51600000D02*
X82000000Y-51600000D01*
X82000000Y-51600000D02*
G75*
G03*
X77000000Y-56600000I0J-5000000D01*
G01*
X173750000Y-146600000D02*
G75*
G03*
X173750000Y-146600000I-1750000J0D01*
G01*
X172000000Y-151600000D02*
G75*
G03*
X177000000Y-146600000I0J5000000D01*
G01*
X177000000Y-146600000D02*
X177000000Y-56600000D01*
X83750000Y-146600000D02*
G75*
G03*
X83750000Y-146600000I-1750000J0D01*
G01*
X177000000Y-56600000D02*
G75*
G03*
X172000000Y-51600000I-5000000J0D01*
G01*
X173750000Y-56600000D02*
G75*
G03*
X173750000Y-56600000I-1750000J0D01*
G01*
X77000000Y-146600000D02*
X77000000Y-56600000D01*
X77000000Y-146600000D02*
G75*
G03*
X82000000Y-151600000I5000000J0D01*
G01*
X172000000Y-151600000D02*
X82000000Y-151600000D01*
D11*
%TO.C,R31*%
X150876000Y-75184000D03*
D12*
X143256000Y-75184000D03*
%TD*%
D13*
%TO.C,D11*%
X87680800Y-113944400D03*
D14*
X90220800Y-113944400D03*
%TD*%
D13*
%TO.C,D4*%
X109474000Y-65074800D03*
D14*
X112014000Y-65074800D03*
%TD*%
D13*
%TO.C,D10*%
X85953600Y-105765600D03*
D14*
X88493600Y-105765600D03*
%TD*%
D11*
%TO.C,R14*%
X108712000Y-131064000D03*
D12*
X108712000Y-123444000D03*
%TD*%
D13*
%TO.C,D3*%
X117398800Y-62484000D03*
D14*
X119938800Y-62484000D03*
%TD*%
D11*
%TO.C,R10*%
X93980000Y-99314000D03*
D12*
X101600000Y-99314000D03*
%TD*%
D13*
%TO.C,D28*%
X155448000Y-74828400D03*
D14*
X157988000Y-74828400D03*
%TD*%
D11*
%TO.C,R1*%
X162560000Y-141478000D03*
D12*
X162560000Y-133858000D03*
%TD*%
D11*
%TO.C,R29*%
X150876000Y-81788000D03*
D12*
X143256000Y-81788000D03*
%TD*%
D11*
%TO.C,R9*%
X93980000Y-96012000D03*
D12*
X101600000Y-96012000D03*
%TD*%
D13*
%TO.C,D5*%
X102209600Y-69240400D03*
D14*
X104749600Y-69240400D03*
%TD*%
D11*
%TO.C,R22*%
X150622000Y-120650000D03*
D12*
X143002000Y-120650000D03*
%TD*%
D13*
%TO.C,D15*%
X109474000Y-138125200D03*
D14*
X112014000Y-138125200D03*
%TD*%
D11*
%TO.C,R27*%
X159004000Y-90678000D03*
D12*
X151384000Y-90678000D03*
%TD*%
D11*
%TO.C,R25*%
X158750000Y-108712000D03*
D12*
X151130000Y-108712000D03*
%TD*%
D13*
%TO.C,D14*%
X102209600Y-133959600D03*
D14*
X104749600Y-133959600D03*
%TD*%
D13*
%TO.C,D9*%
X85953600Y-97434400D03*
D14*
X88493600Y-97434400D03*
%TD*%
D11*
%TO.C,R30*%
X150876000Y-78486000D03*
D12*
X143256000Y-78486000D03*
%TD*%
D13*
%TO.C,D23*%
X163779200Y-113944400D03*
D14*
X166319200Y-113944400D03*
%TD*%
D11*
%TO.C,R2*%
X128016000Y-69342000D03*
D12*
X128016000Y-76962000D03*
%TD*%
D13*
%TO.C,D2*%
X125730000Y-61595000D03*
D14*
X128270000Y-61595000D03*
%TD*%
D11*
%TO.C,R3*%
X124714000Y-69342000D03*
D12*
X124714000Y-76962000D03*
%TD*%
D11*
%TO.C,R28*%
X159004000Y-87376000D03*
D12*
X151384000Y-87376000D03*
%TD*%
D13*
%TO.C,D1*%
X134056200Y-62484000D03*
D14*
X136596200Y-62484000D03*
%TD*%
D11*
%TO.C,R26*%
X159004000Y-93980000D03*
D12*
X151384000Y-93980000D03*
%TD*%
D13*
%TO.C,D22*%
X160375600Y-121615200D03*
D14*
X162915600Y-121615200D03*
%TD*%
D13*
%TO.C,D27*%
X160375600Y-81584800D03*
D14*
X162915600Y-81584800D03*
%TD*%
D13*
%TO.C,D25*%
X165506400Y-97434400D03*
D14*
X168046400Y-97434400D03*
%TD*%
D11*
%TO.C,R12*%
X93980000Y-107188000D03*
D12*
X101600000Y-107188000D03*
%TD*%
D11*
%TO.C,R7*%
X108712000Y-71882000D03*
D12*
X108712000Y-79502000D03*
%TD*%
D11*
%TO.C,R23*%
X158750000Y-115316000D03*
D12*
X151130000Y-115316000D03*
%TD*%
D11*
%TO.C,R4*%
X121412000Y-69342000D03*
D12*
X121412000Y-76962000D03*
%TD*%
D11*
%TO.C,R6*%
X112014000Y-71882000D03*
D12*
X112014000Y-79502000D03*
%TD*%
D13*
%TO.C,D16*%
X117398800Y-140716000D03*
D14*
X119938800Y-140716000D03*
%TD*%
D11*
%TO.C,R24*%
X158750000Y-112014000D03*
D12*
X151130000Y-112014000D03*
%TD*%
D11*
%TO.C,R16*%
X115316000Y-131064000D03*
D12*
X115316000Y-123444000D03*
%TD*%
D13*
%TO.C,D29*%
X149250400Y-69240400D03*
D14*
X151790400Y-69240400D03*
%TD*%
D13*
%TO.C,D6*%
X96012000Y-74828400D03*
D14*
X98552000Y-74828400D03*
%TD*%
D15*
%TO.C,SW1*%
X172362000Y-134366000D03*
X165862000Y-134366000D03*
X165862000Y-138866000D03*
X172362000Y-138866000D03*
%TD*%
D13*
%TO.C,D12*%
X91084400Y-121615200D03*
D14*
X93624400Y-121615200D03*
%TD*%
D13*
%TO.C,D21*%
X155448000Y-128371600D03*
D14*
X157988000Y-128371600D03*
%TD*%
D13*
%TO.C,D8*%
X87680800Y-89255600D03*
D14*
X90220800Y-89255600D03*
%TD*%
D13*
%TO.C,D13*%
X96012000Y-128371600D03*
D14*
X98552000Y-128371600D03*
%TD*%
D11*
%TO.C,R11*%
X93980000Y-103886000D03*
D12*
X101600000Y-103886000D03*
%TD*%
D11*
%TO.C,R15*%
X112014000Y-131064000D03*
D12*
X112014000Y-123444000D03*
%TD*%
D11*
%TO.C,R20*%
X150622000Y-127254000D03*
D12*
X143002000Y-127254000D03*
%TD*%
D11*
%TO.C,R19*%
X127254000Y-134366000D03*
D12*
X127254000Y-126746000D03*
%TD*%
D13*
%TO.C,D17*%
X125730000Y-141579600D03*
D14*
X128270000Y-141579600D03*
%TD*%
D11*
%TO.C,R17*%
X120650000Y-134366000D03*
D12*
X120650000Y-126746000D03*
%TD*%
D13*
%TO.C,D7*%
X91084400Y-81635600D03*
D14*
X93624400Y-81635600D03*
%TD*%
D13*
%TO.C,D26*%
X163779200Y-89255600D03*
D14*
X166319200Y-89255600D03*
%TD*%
D13*
%TO.C,D18*%
X134061200Y-140716000D03*
D14*
X136601200Y-140716000D03*
%TD*%
D13*
%TO.C,D30*%
X141986000Y-65074800D03*
D14*
X144526000Y-65074800D03*
%TD*%
D11*
%TO.C,R13*%
X93980000Y-110490000D03*
D12*
X101600000Y-110490000D03*
%TD*%
D11*
%TO.C,R18*%
X123952000Y-134366000D03*
D12*
X123952000Y-126746000D03*
%TD*%
D13*
%TO.C,D24*%
X165506400Y-105765600D03*
D14*
X168046400Y-105765600D03*
%TD*%
D11*
%TO.C,R5*%
X115316000Y-71882000D03*
D12*
X115316000Y-79502000D03*
%TD*%
D11*
%TO.C,R21*%
X150622000Y-123952000D03*
D12*
X143002000Y-123952000D03*
%TD*%
D13*
%TO.C,D20*%
X149250400Y-133959600D03*
D14*
X151790400Y-133959600D03*
%TD*%
D11*
%TO.C,R8*%
X93980000Y-92710000D03*
D12*
X101600000Y-92710000D03*
%TD*%
D13*
%TO.C,D19*%
X141986000Y-138176000D03*
D14*
X144526000Y-138176000D03*
%TD*%
D16*
%TO.C,J2*%
X118110000Y-90170000D03*
D17*
X120650000Y-90170000D03*
X123190000Y-90170000D03*
X125730000Y-90170000D03*
X128270000Y-90170000D03*
X130810000Y-90170000D03*
X133350000Y-90170000D03*
X135890000Y-90170000D03*
%TD*%
D16*
%TO.C,J1*%
X118110000Y-113030000D03*
D17*
X120650000Y-113030000D03*
X123190000Y-113030000D03*
X125730000Y-113030000D03*
X128270000Y-113030000D03*
X130810000Y-113030000D03*
X133350000Y-113030000D03*
X135890000Y-113030000D03*
%TD*%
M02*
