%TF.GenerationSoftware,KiCad,Pcbnew,6.0.2+dfsg-1*%
%TF.CreationDate,2024-09-01T22:19:58+09:00*%
%TF.ProjectId,roulette,726f756c-6574-4746-952e-6b696361645f,A*%
%TF.SameCoordinates,Original*%
%TF.FileFunction,Legend,Bot*%
%TF.FilePolarity,Positive*%
%FSLAX46Y46*%
G04 Gerber Fmt 4.6, Leading zero omitted, Abs format (unit mm)*
G04 Created by KiCad (PCBNEW 6.0.2+dfsg-1) date 2024-09-01 22:19:58*
%MOMM*%
%LPD*%
G01*
G04 APERTURE LIST*
%TA.AperFunction,Profile*%
%ADD10C,0.200000*%
%TD*%
%ADD11C,0.150000*%
%ADD12C,0.120000*%
G04 APERTURE END LIST*
D10*
X83750000Y-56600000D02*
G75*
G03*
X83750000Y-56600000I-1750000J0D01*
G01*
X172000000Y-51600000D02*
X82000000Y-51600000D01*
X82000000Y-51600000D02*
G75*
G03*
X77000000Y-56600000I0J-5000000D01*
G01*
X173750000Y-146600000D02*
G75*
G03*
X173750000Y-146600000I-1750000J0D01*
G01*
X172000000Y-151600000D02*
G75*
G03*
X177000000Y-146600000I0J5000000D01*
G01*
X177000000Y-146600000D02*
X177000000Y-56600000D01*
X83750000Y-146600000D02*
G75*
G03*
X83750000Y-146600000I-1750000J0D01*
G01*
X177000000Y-56600000D02*
G75*
G03*
X172000000Y-51600000I-5000000J0D01*
G01*
X173750000Y-56600000D02*
G75*
G03*
X173750000Y-56600000I-1750000J0D01*
G01*
X77000000Y-146600000D02*
X77000000Y-56600000D01*
X77000000Y-146600000D02*
G75*
G03*
X82000000Y-151600000I5000000J0D01*
G01*
X172000000Y-151600000D02*
X82000000Y-151600000D01*
D11*
%TO.C,J2*%
X115232380Y-89836666D02*
X115946666Y-89836666D01*
X116089523Y-89789047D01*
X116184761Y-89693809D01*
X116232380Y-89550952D01*
X116232380Y-89455714D01*
X115327619Y-90265238D02*
X115280000Y-90312857D01*
X115232380Y-90408095D01*
X115232380Y-90646190D01*
X115280000Y-90741428D01*
X115327619Y-90789047D01*
X115422857Y-90836666D01*
X115518095Y-90836666D01*
X115660952Y-90789047D01*
X116232380Y-90217619D01*
X116232380Y-90836666D01*
%TO.C,J1*%
X115232380Y-112696666D02*
X115946666Y-112696666D01*
X116089523Y-112649047D01*
X116184761Y-112553809D01*
X116232380Y-112410952D01*
X116232380Y-112315714D01*
X116232380Y-113696666D02*
X116232380Y-113125238D01*
X116232380Y-113410952D02*
X115232380Y-113410952D01*
X115375238Y-113315714D01*
X115470476Y-113220476D01*
X115518095Y-113125238D01*
D12*
%TO.C,J2*%
X119380000Y-91500000D02*
X137220000Y-91500000D01*
X119380000Y-88840000D02*
X119380000Y-91500000D01*
X137220000Y-88840000D02*
X137220000Y-91500000D01*
X116780000Y-88840000D02*
X116780000Y-90170000D01*
X118110000Y-88840000D02*
X116780000Y-88840000D01*
X119380000Y-88840000D02*
X137220000Y-88840000D01*
%TO.C,J1*%
X118110000Y-111700000D02*
X116780000Y-111700000D01*
X119380000Y-114360000D02*
X137220000Y-114360000D01*
X137220000Y-111700000D02*
X137220000Y-114360000D01*
X119380000Y-111700000D02*
X137220000Y-111700000D01*
X116780000Y-111700000D02*
X116780000Y-113030000D01*
X119380000Y-111700000D02*
X119380000Y-114360000D01*
%TD*%
M02*
